<?xml version="1.0" standalone="no"?><!DOCTYPE svg PUBLIC "-//W3C//DTD SVG 1.1//EN" "http://www.w3.org/Graphics/SVG/1.1/DTD/svg11.dtd"><svg t="1741703663636" class="icon" viewBox="0 0 1024 1024" version="1.1" xmlns="http://www.w3.org/2000/svg" p-id="2353" xmlns:xlink="http://www.w3.org/1999/xlink" width="200" height="200"><path d="M199.111111 227.555556h739.555556c48.355556 0 85.333333 36.977778 85.333333 85.333333v512c0 48.355556-36.977778 85.333333-85.333333 85.333333H199.111111c-48.355556 0-85.333333-36.977778-85.333333-85.333333V312.888889c0-48.355556 36.977778-85.333333 85.333333-85.333333z" fill="#e6e6e6" p-id="2354"></path><path d="M853.333333 853.333333H113.777778c-62.577778 0-113.777778-51.2-113.777778-113.777777V227.555556c0-62.577778 51.2-113.777778 113.777778-113.777778h739.555555c62.577778 0 113.777778 51.2 113.777778 113.777778v512c0 62.577778-51.2 113.777778-113.777778 113.777777zM113.777778 170.666667c-31.288889 0-56.888889 25.6-56.888889 56.888889v512c0 31.288889 25.6 56.888889 56.888889 56.888888h739.555555c31.288889 0 56.888889-25.6 56.888889-56.888888V227.555556c0-31.288889-25.6-56.888889-56.888889-56.888889H113.777778z" fill="#4F637E" p-id="2355"></path><path d="M241.777778 654.222222C170.666667 654.222222 113.777778 597.333333 113.777778 526.222222S170.666667 398.222222 241.777778 398.222222s128 56.888889 128 128S312.888889 654.222222 241.777778 654.222222z m0-199.111111C201.955556 455.111111 170.666667 486.4 170.666667 526.222222S201.955556 597.333333 241.777778 597.333333s71.111111-31.288889 71.111111-71.111111S281.6 455.111111 241.777778 455.111111z m341.333333 56.888889C512 512 455.111111 455.111111 455.111111 384S512 256 583.111111 256s128 56.888889 128 128-56.888889 128-128 128z m0-199.111111c-39.822222 0-71.111111 31.288889-71.111111 71.111111s31.288889 71.111111 71.111111 71.111111 71.111111-31.288889 71.111111-71.111111-31.288889-71.111111-71.111111-71.111111z" fill="#4F637E" p-id="2356"></path><path d="M824.888889 711.111111H420.977778l-116.622222-88.177778c-11.377778-8.533333-14.222222-28.444444-5.688889-39.822222 8.533333-11.377778 28.444444-14.222222 39.822222-5.688889l102.4 76.8H824.888889c17.066667 0 28.444444 11.377778 28.444444 28.444445s-14.222222 28.444444-28.444444 28.444444zM475.022222 395.377778c-5.688889 0-11.377778-2.844444-17.066666-5.688889L355.555556 312.888889H142.222222c-17.066667 0-28.444444-11.377778-28.444444-28.444445s11.377778-28.444444 28.444444-28.444444h233.244445l116.622222 88.177778c11.377778 8.533333 14.222222 28.444444 5.688889 39.822222-5.688889 8.533333-14.222222 11.377778-22.755556 11.377778zM597.333333 540.444444h227.555556c17.066667 0 28.444444 11.377778 28.444444 28.444445s-11.377778 28.444444-28.444444 28.444444h-227.555556c-17.066667 0-28.444444-11.377778-28.444444-28.444444s11.377778-28.444444 28.444444-28.444445z m85.333334-170.666666h142.222222c17.066667 0 28.444444 11.377778 28.444444 28.444444s-11.377778 28.444444-28.444444 28.444445h-142.222222c-17.066667 0-28.444444-11.377778-28.444445-28.444445s11.377778-28.444444 28.444445-28.444444z" fill="#4F637E" p-id="2357"></path></svg>